<svg width="51" height="42" viewBox="0 0 51 42" fill="none" xmlns="http://www.w3.org/2000/svg">
<g filter="url(#filter0_i_94_21263)">
<path d="M0.960938 8C0.960938 4.22876 0.960938 2.34315 2.13251 1.17157C3.30408 0 5.1897 0 8.96094 0H42.9609C46.7322 0 48.6178 0 49.7894 1.17157C50.9609 2.34315 50.9609 4.22876 50.9609 8V17C50.9609 20.7712 50.9609 22.6569 49.7894 23.8284C48.6178 25 46.7322 25 42.9609 25H8.96094C5.1897 25 3.30408 25 2.13251 23.8284C0.960938 22.6569 0.960938 20.7712 0.960938 17V8Z" fill="#002B45"/>
</g>
<g filter="url(#filter1_i_94_21263)">
<path d="M2.47656 7.875C2.47656 5.04657 2.47656 3.63236 3.35524 2.75368C4.23392 1.875 5.64814 1.875 8.47656 1.875H43.4463C46.2747 1.875 47.6889 1.875 48.5676 2.75368C49.4463 3.63236 49.4463 5.04657 49.4463 7.875V17.125C49.4463 19.9534 49.4463 21.3676 48.5676 22.2463C47.6889 23.125 46.2747 23.125 43.4463 23.125H8.47656C5.64813 23.125 4.23392 23.125 3.35524 22.2463C2.47656 21.3676 2.47656 19.9534 2.47656 17.125V7.875Z" fill="#2C66F6"/>
</g>
<path d="M26.9507 35.1429C26.7857 36.2857 25.1362 36.2857 24.9712 35.1429L23.5278 25.1429C23.4408 24.54 23.9084 24 24.5176 24L27.4043 24C28.0134 24 28.4811 24.54 28.3941 25.1429L26.9507 35.1429Z" fill="#002B45"/>
<path d="M22.4797 9.378L20.9177 11.446C21.4897 11.578 21.9443 11.842 22.2817 12.238C22.6263 12.6267 22.7987 13.1033 22.7987 13.668C22.7987 14.438 22.5383 15.043 22.0177 15.483C21.5043 15.923 20.8663 16.143 20.1037 16.143C19.5023 16.143 18.9707 16.0073 18.5087 15.736C18.0467 15.4573 17.7167 15.0613 17.5187 14.548L18.5967 13.921C18.824 14.581 19.3263 14.911 20.1037 14.911C20.5437 14.911 20.892 14.801 21.1487 14.581C21.4053 14.3537 21.5337 14.0493 21.5337 13.668C21.5337 13.2867 21.4053 12.986 21.1487 12.766C20.892 12.546 20.5437 12.436 20.1037 12.436H19.8177L19.3117 11.677L20.9727 9.488H17.7497V8.3H22.4797V9.378ZM26.7371 13.184L28.7941 16H27.4191L26.0551 14.119L24.6801 16H23.2941L25.3621 13.173L23.4041 10.5H24.7791L26.0441 12.238L27.3091 10.5H28.6951L26.7371 13.184ZM31.5441 10.885H31.6871C32.4937 10.885 33.1464 11.1307 33.6451 11.622C34.1511 12.106 34.4041 12.7367 34.4041 13.514C34.4041 14.284 34.1511 14.9183 33.6451 15.417C33.1391 15.901 32.4864 16.143 31.6871 16.143C30.8804 16.143 30.2241 15.901 29.7181 15.417C29.2121 14.9183 28.9591 14.284 28.9591 13.514C28.9591 12.9273 29.1131 12.4103 29.4211 11.963L31.8631 8.3H33.3041L31.5441 10.885ZM31.6871 14.944C32.1124 14.944 32.4607 14.8157 32.7321 14.559C33.0034 14.295 33.1391 13.9467 33.1391 13.514C33.1391 13.0813 33.0034 12.7367 32.7321 12.48C32.4607 12.216 32.1124 12.084 31.6871 12.084C31.2471 12.084 30.8914 12.216 30.6201 12.48C30.3561 12.7367 30.2241 13.0813 30.2241 13.514C30.2241 13.9467 30.3561 14.295 30.6201 14.559C30.8914 14.8157 31.2471 14.944 31.6871 14.944Z" fill="white"/>
<defs>
<filter id="filter0_i_94_21263" x="0.960938" y="0" width="50" height="25.2844" filterUnits="userSpaceOnUse" color-interpolation-filters="sRGB">
<feFlood flood-opacity="0" result="BackgroundImageFix"/>
<feBlend mode="normal" in="SourceGraphic" in2="BackgroundImageFix" result="shape"/>
<feColorMatrix in="SourceAlpha" type="matrix" values="0 0 0 0 0 0 0 0 0 0 0 0 0 0 0 0 0 0 127 0" result="hardAlpha"/>
<feOffset dy="0.284448"/>
<feGaussianBlur stdDeviation="1.70669"/>
<feComposite in2="hardAlpha" operator="arithmetic" k2="-1" k3="1"/>
<feColorMatrix type="matrix" values="0 0 0 0 0 0 0 0 0 0.0830918 0 0 0 0 0.133333 0 0 0 0.59 0"/>
<feBlend mode="normal" in2="shape" result="effect1_innerShadow_94_21263"/>
</filter>
<filter id="filter1_i_94_21263" x="2.47656" y="1.875" width="46.9688" height="21.5344" filterUnits="userSpaceOnUse" color-interpolation-filters="sRGB">
<feFlood flood-opacity="0" result="BackgroundImageFix"/>
<feBlend mode="normal" in="SourceGraphic" in2="BackgroundImageFix" result="shape"/>
<feColorMatrix in="SourceAlpha" type="matrix" values="0 0 0 0 0 0 0 0 0 0 0 0 0 0 0 0 0 0 127 0" result="hardAlpha"/>
<feOffset dy="0.284448"/>
<feGaussianBlur stdDeviation="3.2356"/>
<feComposite in2="hardAlpha" operator="arithmetic" k2="-1" k3="1"/>
<feColorMatrix type="matrix" values="0 0 0 0 0.0902778 0 0 0 0 0.313201 0 0 0 0 0.866667 0 0 0 1 0"/>
<feBlend mode="normal" in2="shape" result="effect1_innerShadow_94_21263"/>
</filter>
</defs>
</svg>
