<svg width="36" height="42" viewBox="0 0 36 42" fill="none" xmlns="http://www.w3.org/2000/svg">
<g filter="url(#filter0_i_94_21280)">
<path d="M0 8C0 4.22876 0 2.34315 1.17157 1.17157C2.34315 0 4.22876 0 8 0H27.6296C31.4009 0 33.2865 0 34.4581 1.17157C35.6296 2.34315 35.6296 4.22876 35.6296 8V18C35.6296 21.7712 35.6296 23.6569 34.4581 24.8284C33.2865 26 31.4009 26 27.6296 26H8C4.22876 26 2.34315 26 1.17157 24.8284C0 23.6569 0 21.7712 0 18V8Z" fill="#002B45"/>
</g>
<g filter="url(#filter1_i_94_21280)">
<rect x="2" y="2" width="32" height="22" rx="1.99114" fill="#FF69C3"/>
</g>
<path d="M18.9897 35.1429C18.8248 36.2857 17.1752 36.2857 17.0103 35.1429L15.5669 25.1429C15.4799 24.54 15.9475 24 16.5566 24L19.4434 24C20.0525 24 20.5201 24.54 20.4331 25.1429L18.9897 35.1429Z" fill="#002B45"/>
<path d="M7.48095 16.143C6.74028 16.143 6.10962 15.978 5.58895 15.648C5.07562 15.3107 4.71628 14.845 4.51095 14.251L5.59995 13.613C5.90795 14.4783 6.54595 14.911 7.51395 14.911C7.98328 14.911 8.33895 14.8193 8.58095 14.636C8.82295 14.4527 8.94395 14.207 8.94395 13.899C8.94395 13.591 8.81562 13.3527 8.55895 13.184C8.30228 13.0153 7.84762 12.832 7.19495 12.634C6.52762 12.436 5.98862 12.2013 5.57795 11.93C5.07928 11.578 4.82995 11.061 4.82995 10.379C4.82995 9.697 5.07195 9.158 5.55595 8.762C6.03262 8.35867 6.61562 8.157 7.30495 8.157C7.91362 8.157 8.44895 8.30733 8.91095 8.608C9.38028 8.90133 9.73962 9.31567 9.98895 9.851L8.92195 10.467C8.59928 9.74833 8.06028 9.389 7.30495 9.389C6.93828 9.389 6.64495 9.477 6.42495 9.653C6.20495 9.82167 6.09495 10.0527 6.09495 10.346C6.09495 10.632 6.20495 10.8593 6.42495 11.028C6.64495 11.1893 7.05195 11.3617 7.64595 11.545C8.01262 11.6697 8.22528 11.743 8.28395 11.765C8.37928 11.7943 8.56995 11.8677 8.85595 11.985C9.09062 12.0803 9.27762 12.183 9.41695 12.293C9.98895 12.7403 10.2529 13.2683 10.2089 13.877C10.2089 14.5737 9.95595 15.1273 9.44995 15.538C8.95862 15.9413 8.30228 16.143 7.48095 16.143ZM13.9682 16.143C13.1395 16.143 12.4465 15.8643 11.8892 15.307C11.3392 14.7423 11.0642 14.0567 11.0642 13.25C11.0642 12.4287 11.3392 11.743 11.8892 11.193C12.4465 10.6357 13.1395 10.357 13.9682 10.357C14.5035 10.357 14.9912 10.4853 15.4312 10.742C15.8712 10.9987 16.2012 11.3433 16.4212 11.776L15.3982 12.37C15.2735 12.106 15.0829 11.9007 14.8262 11.754C14.5769 11.6 14.2872 11.523 13.9572 11.523C13.4732 11.523 13.0662 11.688 12.7362 12.018C12.4135 12.3553 12.2522 12.766 12.2522 13.25C12.2522 13.734 12.4135 14.1447 12.7362 14.482C13.0662 14.812 13.4732 14.977 13.9572 14.977C14.2799 14.977 14.5695 14.9037 14.8262 14.757C15.0902 14.603 15.2882 14.394 15.4202 14.13L16.4432 14.713C16.2085 15.153 15.8675 15.5013 15.4202 15.758C14.9802 16.0147 14.4962 16.143 13.9682 16.143ZM18.5221 10.5V11.424C18.8228 10.742 19.3874 10.401 20.2161 10.401V11.688C19.7688 11.6587 19.3728 11.7687 19.0281 12.018C18.6908 12.26 18.5221 12.6633 18.5221 13.228V16H17.3341V10.5H18.5221ZM25.4891 15.307C24.9317 15.8643 24.2461 16.143 23.4321 16.143C22.6181 16.143 21.9324 15.8643 21.3751 15.307C20.8104 14.7423 20.5281 14.0567 20.5281 13.25C20.5281 12.4433 20.8104 11.7577 21.3751 11.193C21.9324 10.6357 22.6181 10.357 23.4321 10.357C24.2461 10.357 24.9317 10.6357 25.4891 11.193C26.0537 11.7577 26.3361 12.4433 26.3361 13.25C26.3361 14.0567 26.0537 14.7423 25.4891 15.307ZM21.7161 13.25C21.7161 13.7487 21.8811 14.163 22.2111 14.493C22.5411 14.823 22.9481 14.988 23.4321 14.988C23.9161 14.988 24.3231 14.823 24.6531 14.493C24.9831 14.163 25.1481 13.7487 25.1481 13.25C25.1481 12.7513 24.9831 12.337 24.6531 12.007C24.3231 11.677 23.9161 11.512 23.4321 11.512C22.9481 11.512 22.5411 11.677 22.2111 12.007C21.8811 12.337 21.7161 12.7513 21.7161 13.25ZM28.5983 16H27.4103V7.97H28.5983V16ZM31.1657 16H29.9777V7.97H31.1657V16Z" fill="white"/>
<defs>
<filter id="filter0_i_94_21280" x="0" y="0" width="35.6289" height="26.2844" filterUnits="userSpaceOnUse" color-interpolation-filters="sRGB">
<feFlood flood-opacity="0" result="BackgroundImageFix"/>
<feBlend mode="normal" in="SourceGraphic" in2="BackgroundImageFix" result="shape"/>
<feColorMatrix in="SourceAlpha" type="matrix" values="0 0 0 0 0 0 0 0 0 0 0 0 0 0 0 0 0 0 127 0" result="hardAlpha"/>
<feOffset dy="0.284448"/>
<feGaussianBlur stdDeviation="1.70669"/>
<feComposite in2="hardAlpha" operator="arithmetic" k2="-1" k3="1"/>
<feColorMatrix type="matrix" values="0 0 0 0 0 0 0 0 0 0.0830918 0 0 0 0 0.133333 0 0 0 0.59 0"/>
<feBlend mode="normal" in2="shape" result="effect1_innerShadow_94_21280"/>
</filter>
<filter id="filter1_i_94_21280" x="2" y="2" width="32" height="22.2844" filterUnits="userSpaceOnUse" color-interpolation-filters="sRGB">
<feFlood flood-opacity="0" result="BackgroundImageFix"/>
<feBlend mode="normal" in="SourceGraphic" in2="BackgroundImageFix" result="shape"/>
<feColorMatrix in="SourceAlpha" type="matrix" values="0 0 0 0 0 0 0 0 0 0 0 0 0 0 0 0 0 0 127 0" result="hardAlpha"/>
<feOffset dy="0.284448"/>
<feGaussianBlur stdDeviation="3.2356"/>
<feComposite in2="hardAlpha" operator="arithmetic" k2="-1" k3="1"/>
<feColorMatrix type="matrix" values="0 0 0 0 0.7625 0 0 0 0 0 0 0 0 0 0.4575 0 0 0 1 0"/>
<feBlend mode="normal" in2="shape" result="effect1_innerShadow_94_21280"/>
</filter>
</defs>
</svg>
