<svg width="34" height="42" viewBox="0 0 34 42" fill="none" xmlns="http://www.w3.org/2000/svg">
<g filter="url(#filter0_i_94_21294)">
<path d="M0 8C0 4.22876 0 2.34315 1.17157 1.17157C2.34315 0 4.22876 0 8 0H25.3333C29.1046 0 30.9902 0 32.1618 1.17157C33.3333 2.34315 33.3333 4.22876 33.3333 8V17C33.3333 20.7712 33.3333 22.6569 32.1618 23.8284C30.9902 25 29.1046 25 25.3333 25H8C4.22876 25 2.34315 25 1.17157 23.8284C0 22.6569 0 20.7712 0 17V8Z" fill="#002B45"/>
</g>
<g filter="url(#filter1_i_94_21294)">
<rect x="2" y="2" width="29" height="21" rx="3" fill="#2C66F6"/>
</g>
<path d="M17.9897 35.1429C17.8248 36.2857 16.1752 36.2857 16.0103 35.1429L14.5669 25.1429C14.4799 24.54 14.9475 24 15.5566 24L18.4434 24C19.0525 24 19.5201 24.54 19.4331 25.1429L17.9897 35.1429Z" fill="#002B45"/>
<path d="M12.7179 9.378L11.1559 11.446C11.7279 11.578 12.1826 11.842 12.5199 12.238C12.8646 12.6267 13.0369 13.1033 13.0369 13.668C13.0369 14.438 12.7766 15.043 12.2559 15.483C11.7426 15.923 11.1046 16.143 10.3419 16.143C9.7406 16.143 9.20893 16.0073 8.74693 15.736C8.28493 15.4573 7.95493 15.0613 7.75693 14.548L8.83493 13.921C9.06227 14.581 9.5646 14.911 10.3419 14.911C10.7819 14.911 11.1303 14.801 11.3869 14.581C11.6436 14.3537 11.7719 14.0493 11.7719 13.668C11.7719 13.2867 11.6436 12.986 11.3869 12.766C11.1303 12.546 10.7819 12.436 10.3419 12.436H10.0559L9.54993 11.677L11.2109 9.488H7.98793V8.3H12.7179V9.378ZM16.9754 13.184L19.0324 16H17.6574L16.2934 14.119L14.9184 16H13.5324L15.6004 13.173L13.6424 10.5H15.0174L16.2824 12.238L17.5474 10.5H18.9334L16.9754 13.184ZM24.4502 13.437H25.3302V14.614H24.4502V16H23.1742V14.614H19.3902V13.437L22.0412 8.3H23.4162L20.7652 13.437H23.1742V11.435H24.4502V13.437Z" fill="white"/>
<defs>
<filter id="filter0_i_94_21294" x="0" y="0" width="33.334" height="25.2844" filterUnits="userSpaceOnUse" color-interpolation-filters="sRGB">
<feFlood flood-opacity="0" result="BackgroundImageFix"/>
<feBlend mode="normal" in="SourceGraphic" in2="BackgroundImageFix" result="shape"/>
<feColorMatrix in="SourceAlpha" type="matrix" values="0 0 0 0 0 0 0 0 0 0 0 0 0 0 0 0 0 0 127 0" result="hardAlpha"/>
<feOffset dy="0.284448"/>
<feGaussianBlur stdDeviation="1.70669"/>
<feComposite in2="hardAlpha" operator="arithmetic" k2="-1" k3="1"/>
<feColorMatrix type="matrix" values="0 0 0 0 0 0 0 0 0 0.0830918 0 0 0 0 0.133333 0 0 0 0.59 0"/>
<feBlend mode="normal" in2="shape" result="effect1_innerShadow_94_21294"/>
</filter>
<filter id="filter1_i_94_21294" x="2" y="2" width="29" height="21.2844" filterUnits="userSpaceOnUse" color-interpolation-filters="sRGB">
<feFlood flood-opacity="0" result="BackgroundImageFix"/>
<feBlend mode="normal" in="SourceGraphic" in2="BackgroundImageFix" result="shape"/>
<feColorMatrix in="SourceAlpha" type="matrix" values="0 0 0 0 0 0 0 0 0 0 0 0 0 0 0 0 0 0 127 0" result="hardAlpha"/>
<feOffset dy="0.284448"/>
<feGaussianBlur stdDeviation="3.2356"/>
<feComposite in2="hardAlpha" operator="arithmetic" k2="-1" k3="1"/>
<feColorMatrix type="matrix" values="0 0 0 0 0.0902778 0 0 0 0 0.313201 0 0 0 0 0.866667 0 0 0 1 0"/>
<feBlend mode="normal" in2="shape" result="effect1_innerShadow_94_21294"/>
</filter>
</defs>
</svg>
