<svg width="79" height="56" viewBox="0 0 79 56" fill="none" xmlns="http://www.w3.org/2000/svg">
<g filter="url(#filter0_i_94_21253)">
<rect x="0.960938" y="13" width="78" height="26" rx="3.20005" fill="#002B45"/>
</g>
<g filter="url(#filter1_i_94_21253)">
<rect x="3.31641" y="14.9531" width="73.2727" height="22.1" rx="1.99114" fill="#AB76ED"/>
</g>
<path d="M40.9507 49.1429C40.7857 50.2857 39.1362 50.2857 38.9712 49.1429L37.5278 39.1429C37.4408 38.54 37.9084 38 38.5176 38L41.4043 38C42.0134 38 42.4811 38.54 42.3941 39.1429L40.9507 49.1429Z" fill="#002B45"/>
<path d="M28.4106 29.143C27.67 29.143 27.0393 28.978 26.5186 28.648C26.0053 28.3107 25.646 27.845 25.4406 27.251L26.5296 26.613C26.8376 27.4783 27.4756 27.911 28.4436 27.911C28.913 27.911 29.2686 27.8193 29.5106 27.636C29.7526 27.4527 29.8736 27.207 29.8736 26.899C29.8736 26.591 29.7453 26.3527 29.4886 26.184C29.232 26.0153 28.7773 25.832 28.1246 25.634C27.4573 25.436 26.9183 25.2013 26.5076 24.93C26.009 24.578 25.7596 24.061 25.7596 23.379C25.7596 22.697 26.0016 22.158 26.4856 21.762C26.9623 21.3587 27.5453 21.157 28.2346 21.157C28.8433 21.157 29.3786 21.3073 29.8406 21.608C30.31 21.9013 30.6693 22.3157 30.9186 22.851L29.8516 23.467C29.529 22.7483 28.99 22.389 28.2346 22.389C27.868 22.389 27.5746 22.477 27.3546 22.653C27.1346 22.8217 27.0246 23.0527 27.0246 23.346C27.0246 23.632 27.1346 23.8593 27.3546 24.028C27.5746 24.1893 27.9816 24.3617 28.5756 24.545C28.9423 24.6697 29.155 24.743 29.2136 24.765C29.309 24.7943 29.4996 24.8677 29.7856 24.985C30.0203 25.0803 30.2073 25.183 30.3466 25.293C30.9186 25.7403 31.1826 26.2683 31.1386 26.877C31.1386 27.5737 30.8856 28.1273 30.3796 28.538C29.8883 28.9413 29.232 29.143 28.4106 29.143ZM35.8692 26.448V23.5H37.0572V29H35.8692V28.296C35.5026 28.8607 34.9342 29.143 34.1642 29.143C33.5262 29.143 33.0129 28.9413 32.6242 28.538C32.2429 28.1273 32.0522 27.5737 32.0522 26.877V23.5H33.2402V26.756C33.2402 27.1667 33.3502 27.482 33.5702 27.702C33.7902 27.922 34.0909 28.032 34.4722 28.032C34.9049 28.032 35.2459 27.9 35.4952 27.636C35.7446 27.3647 35.8692 26.9687 35.8692 26.448ZM41.5594 23.357C42.3074 23.357 42.9528 23.6393 43.4954 24.204C44.0308 24.7613 44.2984 25.4433 44.2984 26.25C44.2984 27.064 44.0308 27.7497 43.4954 28.307C42.9601 28.8643 42.3148 29.143 41.5594 29.143C40.7308 29.143 40.0891 28.835 39.6344 28.219V31.2H38.4464V23.5H39.6344V24.292C40.0818 23.6687 40.7234 23.357 41.5594 23.357ZM40.1294 27.515C40.4594 27.845 40.8738 28.01 41.3724 28.01C41.8711 28.01 42.2854 27.845 42.6154 27.515C42.9454 27.1777 43.1104 26.756 43.1104 26.25C43.1104 25.744 42.9454 25.326 42.6154 24.996C42.2854 24.6587 41.8711 24.49 41.3724 24.49C40.8738 24.49 40.4594 24.6587 40.1294 24.996C39.7994 25.326 39.6344 25.744 39.6344 26.25C39.6344 26.7487 39.7994 27.1703 40.1294 27.515ZM50.6881 26.756H46.3101C46.3981 27.1667 46.5961 27.4857 46.9041 27.713C47.2195 27.9403 47.6081 28.054 48.0701 28.054C48.6935 28.054 49.1665 27.8267 49.4891 27.372L50.4681 27.944C49.9328 28.7433 49.1298 29.143 48.0591 29.143C47.1718 29.143 46.4495 28.8717 45.8921 28.329C45.3421 27.779 45.0671 27.086 45.0671 26.25C45.0671 25.436 45.3385 24.7503 45.8811 24.193C46.4165 23.6357 47.1131 23.357 47.9711 23.357C48.7705 23.357 49.4305 23.6393 49.9511 24.204C50.4718 24.7687 50.7321 25.4543 50.7321 26.261C50.7321 26.4077 50.7175 26.5727 50.6881 26.756ZM46.2991 25.788H49.5331C49.4525 25.3553 49.2691 25.0217 48.9831 24.787C48.7045 24.5523 48.3635 24.435 47.9601 24.435C47.5201 24.435 47.1535 24.556 46.8601 24.798C46.5668 25.04 46.3798 25.37 46.2991 25.788ZM52.9655 23.5V24.424C53.2661 23.742 53.8308 23.401 54.6595 23.401V24.688C54.2121 24.6587 53.8161 24.7687 53.4715 25.018C53.1341 25.26 52.9655 25.6633 52.9655 26.228V29H51.7775V23.5H52.9655Z" fill="white"/>
<rect x="16.9609" width="46" height="17" rx="8" fill="#2F80ED"/>
<path d="M24.0591 4.3H27.0841C28.1401 4.3 29.0164 4.67033 29.7131 5.411C30.4171 6.15167 30.7691 7.06467 30.7691 8.15C30.7691 9.228 30.4171 10.141 29.7131 10.889C29.0164 11.6297 28.1401 12 27.0841 12H24.0591V4.3ZM25.3241 10.79H27.0841C27.8101 10.79 28.4004 10.5407 28.8551 10.042C29.3171 9.54333 29.5481 8.91267 29.5481 8.15C29.5481 7.38733 29.3171 6.75667 28.8551 6.258C28.4004 5.75933 27.8101 5.51 27.0841 5.51H25.3241V10.79ZM32.9673 5.455C32.8207 5.60167 32.6447 5.675 32.4393 5.675C32.234 5.675 32.0543 5.60167 31.9003 5.455C31.7537 5.301 31.6803 5.12133 31.6803 4.916C31.6803 4.71067 31.7537 4.53467 31.9003 4.388C32.047 4.234 32.2267 4.157 32.4393 4.157C32.652 4.157 32.8317 4.234 32.9783 4.388C33.125 4.53467 33.1983 4.71067 33.1983 4.916C33.1983 5.12133 33.1213 5.301 32.9673 5.455ZM33.0333 12H31.8453V6.5H33.0333V12ZM38.7907 7.314V6.5H39.9567V11.747C39.9567 12.583 39.6817 13.2247 39.1317 13.672C38.5891 14.1193 37.9217 14.343 37.1297 14.343C35.8611 14.343 34.9921 13.8993 34.5227 13.012L35.5457 12.418C35.8317 12.9827 36.3671 13.265 37.1517 13.265C37.6651 13.265 38.0647 13.1293 38.3507 12.858C38.6441 12.594 38.7907 12.2237 38.7907 11.747V11.076C38.3434 11.714 37.7054 12.033 36.8767 12.033C36.1067 12.033 35.4504 11.758 34.9077 11.208C34.3724 10.6507 34.1047 9.97967 34.1047 9.195C34.1047 8.403 34.3724 7.73567 34.9077 7.193C35.4431 6.63567 36.0994 6.357 36.8767 6.357C37.7054 6.357 38.3434 6.676 38.7907 7.314ZM35.7877 10.427C36.1251 10.757 36.5431 10.922 37.0417 10.922C37.5404 10.922 37.9547 10.757 38.2847 10.427C38.6221 10.097 38.7907 9.68633 38.7907 9.195C38.7907 8.70367 38.6221 8.293 38.2847 7.963C37.9547 7.633 37.5404 7.468 37.0417 7.468C36.5431 7.468 36.1251 7.633 35.7877 7.963C35.4577 8.293 35.2927 8.70367 35.2927 9.195C35.2927 9.68633 35.4577 10.097 35.7877 10.427ZM42.4634 5.455C42.3168 5.60167 42.1408 5.675 41.9354 5.675C41.7301 5.675 41.5504 5.60167 41.3964 5.455C41.2498 5.301 41.1764 5.12133 41.1764 4.916C41.1764 4.71067 41.2498 4.53467 41.3964 4.388C41.5431 4.234 41.7228 4.157 41.9354 4.157C42.1481 4.157 42.3278 4.234 42.4744 4.388C42.6211 4.53467 42.6944 4.71067 42.6944 4.916C42.6944 5.12133 42.6174 5.301 42.4634 5.455ZM42.5294 12H41.3414V6.5H42.5294V12ZM46.9778 6.5V7.644H45.6138V10.284C45.6138 10.5113 45.6652 10.6763 45.7678 10.779C45.8705 10.8743 46.0208 10.9293 46.2188 10.944C46.4242 10.9513 46.6772 10.9477 46.9778 10.933V12C46.0685 12.11 45.4158 12.033 45.0198 11.769C44.6238 11.4977 44.4258 11.0027 44.4258 10.284V7.644H43.4138V6.5H44.4258V5.312L45.6138 4.96V6.5H46.9778ZM52.1857 7.281V6.5H53.3737V12H52.1857V11.208C51.7384 11.8313 51.0967 12.143 50.2607 12.143C49.5054 12.143 48.8601 11.8643 48.3247 11.307C47.7894 10.7497 47.5217 10.064 47.5217 9.25C47.5217 8.436 47.7894 7.75033 48.3247 7.193C48.8601 6.63567 49.5054 6.357 50.2607 6.357C51.0967 6.357 51.7384 6.665 52.1857 7.281ZM49.2047 10.515C49.5347 10.845 49.9491 11.01 50.4477 11.01C50.9464 11.01 51.3607 10.845 51.6907 10.515C52.0207 10.1777 52.1857 9.756 52.1857 9.25C52.1857 8.744 52.0207 8.326 51.6907 7.996C51.3607 7.65867 50.9464 7.49 50.4477 7.49C49.9491 7.49 49.5347 7.65867 49.2047 7.996C48.8747 8.326 48.7097 8.744 48.7097 9.25C48.7097 9.74867 48.8747 10.1703 49.2047 10.515ZM55.9464 12H54.7584V3.97H55.9464V12Z" fill="white"/>
<defs>
<filter id="filter0_i_94_21253" x="0.960938" y="13" width="78" height="26.2844" filterUnits="userSpaceOnUse" color-interpolation-filters="sRGB">
<feFlood flood-opacity="0" result="BackgroundImageFix"/>
<feBlend mode="normal" in="SourceGraphic" in2="BackgroundImageFix" result="shape"/>
<feColorMatrix in="SourceAlpha" type="matrix" values="0 0 0 0 0 0 0 0 0 0 0 0 0 0 0 0 0 0 127 0" result="hardAlpha"/>
<feOffset dy="0.284448"/>
<feGaussianBlur stdDeviation="1.70669"/>
<feComposite in2="hardAlpha" operator="arithmetic" k2="-1" k3="1"/>
<feColorMatrix type="matrix" values="0 0 0 0 0 0 0 0 0 0.0830918 0 0 0 0 0.133333 0 0 0 0.59 0"/>
<feBlend mode="normal" in2="shape" result="effect1_innerShadow_94_21253"/>
</filter>
<filter id="filter1_i_94_21253" x="3.31641" y="14.9531" width="73.2734" height="22.3841" filterUnits="userSpaceOnUse" color-interpolation-filters="sRGB">
<feFlood flood-opacity="0" result="BackgroundImageFix"/>
<feBlend mode="normal" in="SourceGraphic" in2="BackgroundImageFix" result="shape"/>
<feColorMatrix in="SourceAlpha" type="matrix" values="0 0 0 0 0 0 0 0 0 0 0 0 0 0 0 0 0 0 127 0" result="hardAlpha"/>
<feOffset dy="0.284448"/>
<feGaussianBlur stdDeviation="3.2356"/>
<feComposite in2="hardAlpha" operator="arithmetic" k2="-1" k3="1"/>
<feColorMatrix type="matrix" values="0 0 0 0 0.488313 0 0 0 0 0.173802 0 0 0 0 0.8875 0 0 0 1 0"/>
<feBlend mode="normal" in2="shape" result="effect1_innerShadow_94_21253"/>
</filter>
</defs>
</svg>
