<svg width="46" height="57" viewBox="0 0 46 57" fill="none" xmlns="http://www.w3.org/2000/svg">
<g filter="url(#filter0_i_94_21302)">
<path d="M6 23C6 19.2288 6 17.3431 7.17157 16.1716C8.34315 15 10.2288 15 14 15H31.3333C35.1046 15 36.9902 15 38.1618 16.1716C39.3333 17.3431 39.3333 19.2288 39.3333 23V32C39.3333 35.7712 39.3333 37.6569 38.1618 38.8284C36.9902 40 35.1046 40 31.3333 40H14C10.2288 40 8.34315 40 7.17157 38.8284C6 37.6569 6 35.7712 6 32V23Z" fill="#002B45"/>
</g>
<g filter="url(#filter1_i_94_21302)">
<rect x="8" y="17" width="29" height="21" rx="3" fill="#FF8957"/>
</g>
<path d="M23.9897 50.1429C23.8248 51.2857 22.1752 51.2857 22.0103 50.1429L20.5669 40.1429C20.4799 39.54 20.9475 39 21.5566 39L24.4434 39C25.0525 39 25.5201 39.54 25.4331 40.1429L23.9897 50.1429Z" fill="#002B45"/>
<rect width="46" height="17" rx="8" fill="#2F80ED"/>
<path d="M7.09813 4.3H10.1231C11.1791 4.3 12.0555 4.67033 12.7521 5.411C13.4561 6.15167 13.8081 7.06467 13.8081 8.15C13.8081 9.228 13.4561 10.141 12.7521 10.889C12.0555 11.6297 11.1791 12 10.1231 12H7.09813V4.3ZM8.36313 10.79H10.1231C10.8491 10.79 11.4395 10.5407 11.8941 10.042C12.3561 9.54333 12.5871 8.91267 12.5871 8.15C12.5871 7.38733 12.3561 6.75667 11.8941 6.258C11.4395 5.75933 10.8491 5.51 10.1231 5.51H8.36313V10.79ZM16.0064 5.455C15.8597 5.60167 15.6837 5.675 15.4784 5.675C15.2731 5.675 15.0934 5.60167 14.9394 5.455C14.7927 5.301 14.7194 5.12133 14.7194 4.916C14.7194 4.71067 14.7927 4.53467 14.9394 4.388C15.0861 4.234 15.2657 4.157 15.4784 4.157C15.6911 4.157 15.8707 4.234 16.0174 4.388C16.1641 4.53467 16.2374 4.71067 16.2374 4.916C16.2374 5.12133 16.1604 5.301 16.0064 5.455ZM16.0724 12H14.8844V6.5H16.0724V12ZM21.8298 7.314V6.5H22.9958V11.747C22.9958 12.583 22.7208 13.2247 22.1708 13.672C21.6281 14.1193 20.9608 14.343 20.1688 14.343C18.9001 14.343 18.0311 13.8993 17.5618 13.012L18.5848 12.418C18.8708 12.9827 19.4061 13.265 20.1908 13.265C20.7041 13.265 21.1038 13.1293 21.3898 12.858C21.6831 12.594 21.8298 12.2237 21.8298 11.747V11.076C21.3825 11.714 20.7445 12.033 19.9158 12.033C19.1458 12.033 18.4895 11.758 17.9468 11.208C17.4115 10.6507 17.1438 9.97967 17.1438 9.195C17.1438 8.403 17.4115 7.73567 17.9468 7.193C18.4821 6.63567 19.1385 6.357 19.9158 6.357C20.7445 6.357 21.3825 6.676 21.8298 7.314ZM18.8268 10.427C19.1641 10.757 19.5821 10.922 20.0808 10.922C20.5795 10.922 20.9938 10.757 21.3238 10.427C21.6611 10.097 21.8298 9.68633 21.8298 9.195C21.8298 8.70367 21.6611 8.293 21.3238 7.963C20.9938 7.633 20.5795 7.468 20.0808 7.468C19.5821 7.468 19.1641 7.633 18.8268 7.963C18.4968 8.293 18.3318 8.70367 18.3318 9.195C18.3318 9.68633 18.4968 10.097 18.8268 10.427ZM25.5025 5.455C25.3558 5.60167 25.1798 5.675 24.9745 5.675C24.7692 5.675 24.5895 5.60167 24.4355 5.455C24.2888 5.301 24.2155 5.12133 24.2155 4.916C24.2155 4.71067 24.2888 4.53467 24.4355 4.388C24.5822 4.234 24.7618 4.157 24.9745 4.157C25.1872 4.157 25.3668 4.234 25.5135 4.388C25.6602 4.53467 25.7335 4.71067 25.7335 4.916C25.7335 5.12133 25.6565 5.301 25.5025 5.455ZM25.5685 12H24.3805V6.5H25.5685V12ZM30.0169 6.5V7.644H28.6529V10.284C28.6529 10.5113 28.7042 10.6763 28.8069 10.779C28.9095 10.8743 29.0599 10.9293 29.2579 10.944C29.4632 10.9513 29.7162 10.9477 30.0169 10.933V12C29.1075 12.11 28.4549 12.033 28.0589 11.769C27.6629 11.4977 27.4649 11.0027 27.4649 10.284V7.644H26.4529V6.5H27.4649V5.312L28.6529 4.96V6.5H30.0169ZM35.2248 7.281V6.5H36.4128V12H35.2248V11.208C34.7774 11.8313 34.1358 12.143 33.2998 12.143C32.5444 12.143 31.8991 11.8643 31.3638 11.307C30.8284 10.7497 30.5608 10.064 30.5608 9.25C30.5608 8.436 30.8284 7.75033 31.3638 7.193C31.8991 6.63567 32.5444 6.357 33.2998 6.357C34.1358 6.357 34.7774 6.665 35.2248 7.281ZM32.2438 10.515C32.5738 10.845 32.9881 11.01 33.4868 11.01C33.9854 11.01 34.3998 10.845 34.7298 10.515C35.0598 10.1777 35.2248 9.756 35.2248 9.25C35.2248 8.744 35.0598 8.326 34.7298 7.996C34.3998 7.65867 33.9854 7.49 33.4868 7.49C32.9881 7.49 32.5738 7.65867 32.2438 7.996C31.9138 8.326 31.7488 8.744 31.7488 9.25C31.7488 9.74867 31.9138 10.1703 32.2438 10.515ZM38.9855 12H37.7975V3.97H38.9855V12Z" fill="white"/>
<path d="M18.7179 24.378L17.1559 26.446C17.7279 26.578 18.1826 26.842 18.5199 27.238C18.8646 27.6267 19.0369 28.1033 19.0369 28.668C19.0369 29.438 18.7766 30.043 18.2559 30.483C17.7426 30.923 17.1046 31.143 16.3419 31.143C15.7406 31.143 15.2089 31.0073 14.7469 30.736C14.2849 30.4573 13.9549 30.0613 13.7569 29.548L14.8349 28.921C15.0623 29.581 15.5646 29.911 16.3419 29.911C16.7819 29.911 17.1303 29.801 17.3869 29.581C17.6436 29.3537 17.7719 29.0493 17.7719 28.668C17.7719 28.2867 17.6436 27.986 17.3869 27.766C17.1303 27.546 16.7819 27.436 16.3419 27.436H16.0559L15.5499 26.677L17.2109 24.488H13.9879V23.3H18.7179V24.378ZM22.9754 28.184L25.0324 31H23.6574L22.2934 29.119L20.9184 31H19.5324L21.6004 28.173L19.6424 25.5H21.0174L22.2824 27.238L23.5474 25.5H24.9334L22.9754 28.184ZM30.4502 28.437H31.3302V29.614H30.4502V31H29.1742V29.614H25.3902V28.437L28.0412 23.3H29.4162L26.7652 28.437H29.1742V26.435H30.4502V28.437Z" fill="white"/>
<defs>
<filter id="filter0_i_94_21302" x="6" y="15" width="33.334" height="25.2844" filterUnits="userSpaceOnUse" color-interpolation-filters="sRGB">
<feFlood flood-opacity="0" result="BackgroundImageFix"/>
<feBlend mode="normal" in="SourceGraphic" in2="BackgroundImageFix" result="shape"/>
<feColorMatrix in="SourceAlpha" type="matrix" values="0 0 0 0 0 0 0 0 0 0 0 0 0 0 0 0 0 0 127 0" result="hardAlpha"/>
<feOffset dy="0.284448"/>
<feGaussianBlur stdDeviation="1.70669"/>
<feComposite in2="hardAlpha" operator="arithmetic" k2="-1" k3="1"/>
<feColorMatrix type="matrix" values="0 0 0 0 0 0 0 0 0 0.0830918 0 0 0 0 0.133333 0 0 0 0.59 0"/>
<feBlend mode="normal" in2="shape" result="effect1_innerShadow_94_21302"/>
</filter>
<filter id="filter1_i_94_21302" x="8" y="17" width="29" height="21.2844" filterUnits="userSpaceOnUse" color-interpolation-filters="sRGB">
<feFlood flood-opacity="0" result="BackgroundImageFix"/>
<feBlend mode="normal" in="SourceGraphic" in2="BackgroundImageFix" result="shape"/>
<feColorMatrix in="SourceAlpha" type="matrix" values="0 0 0 0 0 0 0 0 0 0 0 0 0 0 0 0 0 0 127 0" result="hardAlpha"/>
<feOffset dy="0.284448"/>
<feGaussianBlur stdDeviation="3.2356"/>
<feComposite in2="hardAlpha" operator="arithmetic" k2="-1" k3="1"/>
<feColorMatrix type="matrix" values="0 0 0 0 0.983333 0 0 0 0 0.236 0 0 0 0 0 0 0 0 1 0"/>
<feBlend mode="normal" in2="shape" result="effect1_innerShadow_94_21302"/>
</filter>
</defs>
</svg>
