<svg width="51" height="57" viewBox="0 0 51 57" fill="none" xmlns="http://www.w3.org/2000/svg">
<g filter="url(#filter0_i_94_21270)">
<path d="M0.960938 23C0.960938 19.2288 0.960938 17.3431 2.13251 16.1716C3.30408 15 5.1897 15 8.96094 15H42.9609C46.7322 15 48.6178 15 49.7894 16.1716C50.9609 17.3431 50.9609 19.2288 50.9609 23V32C50.9609 35.7712 50.9609 37.6569 49.7894 38.8284C48.6178 40 46.7322 40 42.9609 40H8.96094C5.1897 40 3.30408 40 2.13251 38.8284C0.960938 37.6569 0.960938 35.7712 0.960938 32V23Z" fill="#002B45"/>
</g>
<g filter="url(#filter1_i_94_21270)">
<rect x="2.47656" y="16.875" width="46.9697" height="21.25" rx="3" fill="#FF8957"/>
</g>
<path d="M26.9507 50.1429C26.7857 51.2857 25.1362 51.2857 24.9712 50.1429L23.5278 40.1429C23.4408 39.54 23.9084 39 24.5176 39L27.4043 39C28.0134 39 28.4811 39.54 28.3941 40.1429L26.9507 50.1429Z" fill="#002B45"/>
<path d="M22.4797 24.378L20.9177 26.446C21.4897 26.578 21.9443 26.842 22.2817 27.238C22.6263 27.6267 22.7987 28.1033 22.7987 28.668C22.7987 29.438 22.5383 30.043 22.0177 30.483C21.5043 30.923 20.8663 31.143 20.1037 31.143C19.5023 31.143 18.9707 31.0073 18.5087 30.736C18.0467 30.4573 17.7167 30.0613 17.5187 29.548L18.5967 28.921C18.824 29.581 19.3263 29.911 20.1037 29.911C20.5437 29.911 20.892 29.801 21.1487 29.581C21.4053 29.3537 21.5337 29.0493 21.5337 28.668C21.5337 28.2867 21.4053 27.986 21.1487 27.766C20.892 27.546 20.5437 27.436 20.1037 27.436H19.8177L19.3117 26.677L20.9727 24.488H17.7497V23.3H22.4797V24.378ZM26.7371 28.184L28.7941 31H27.4191L26.0551 29.119L24.6801 31H23.2941L25.3621 28.173L23.4041 25.5H24.7791L26.0441 27.238L27.3091 25.5H28.6951L26.7371 28.184ZM31.5441 25.885H31.6871C32.4937 25.885 33.1464 26.1307 33.6451 26.622C34.1511 27.106 34.4041 27.7367 34.4041 28.514C34.4041 29.284 34.1511 29.9183 33.6451 30.417C33.1391 30.901 32.4864 31.143 31.6871 31.143C30.8804 31.143 30.2241 30.901 29.7181 30.417C29.2121 29.9183 28.9591 29.284 28.9591 28.514C28.9591 27.9273 29.1131 27.4103 29.4211 26.963L31.8631 23.3H33.3041L31.5441 25.885ZM31.6871 29.944C32.1124 29.944 32.4607 29.8157 32.7321 29.559C33.0034 29.295 33.1391 28.9467 33.1391 28.514C33.1391 28.0813 33.0034 27.7367 32.7321 27.48C32.4607 27.216 32.1124 27.084 31.6871 27.084C31.2471 27.084 30.8914 27.216 30.6201 27.48C30.3561 27.7367 30.2241 28.0813 30.2241 28.514C30.2241 28.9467 30.3561 29.295 30.6201 29.559C30.8914 29.8157 31.2471 29.944 31.6871 29.944Z" fill="white"/>
<rect x="3" width="46" height="17" rx="8" fill="#2F80ED"/>
<path d="M10.0981 4.3H13.1231C14.1791 4.3 15.0555 4.67033 15.7521 5.411C16.4561 6.15167 16.8081 7.06467 16.8081 8.15C16.8081 9.228 16.4561 10.141 15.7521 10.889C15.0555 11.6297 14.1791 12 13.1231 12H10.0981V4.3ZM11.3631 10.79H13.1231C13.8491 10.79 14.4395 10.5407 14.8941 10.042C15.3561 9.54333 15.5871 8.91267 15.5871 8.15C15.5871 7.38733 15.3561 6.75667 14.8941 6.258C14.4395 5.75933 13.8491 5.51 13.1231 5.51H11.3631V10.79ZM19.0064 5.455C18.8597 5.60167 18.6837 5.675 18.4784 5.675C18.2731 5.675 18.0934 5.60167 17.9394 5.455C17.7927 5.301 17.7194 5.12133 17.7194 4.916C17.7194 4.71067 17.7927 4.53467 17.9394 4.388C18.0861 4.234 18.2657 4.157 18.4784 4.157C18.6911 4.157 18.8707 4.234 19.0174 4.388C19.1641 4.53467 19.2374 4.71067 19.2374 4.916C19.2374 5.12133 19.1604 5.301 19.0064 5.455ZM19.0724 12H17.8844V6.5H19.0724V12ZM24.8298 7.314V6.5H25.9958V11.747C25.9958 12.583 25.7208 13.2247 25.1708 13.672C24.6281 14.1193 23.9608 14.343 23.1688 14.343C21.9001 14.343 21.0311 13.8993 20.5618 13.012L21.5848 12.418C21.8708 12.9827 22.4061 13.265 23.1908 13.265C23.7041 13.265 24.1038 13.1293 24.3898 12.858C24.6831 12.594 24.8298 12.2237 24.8298 11.747V11.076C24.3825 11.714 23.7445 12.033 22.9158 12.033C22.1458 12.033 21.4895 11.758 20.9468 11.208C20.4115 10.6507 20.1438 9.97967 20.1438 9.195C20.1438 8.403 20.4115 7.73567 20.9468 7.193C21.4821 6.63567 22.1385 6.357 22.9158 6.357C23.7445 6.357 24.3825 6.676 24.8298 7.314ZM21.8268 10.427C22.1641 10.757 22.5821 10.922 23.0808 10.922C23.5795 10.922 23.9938 10.757 24.3238 10.427C24.6611 10.097 24.8298 9.68633 24.8298 9.195C24.8298 8.70367 24.6611 8.293 24.3238 7.963C23.9938 7.633 23.5795 7.468 23.0808 7.468C22.5821 7.468 22.1641 7.633 21.8268 7.963C21.4968 8.293 21.3318 8.70367 21.3318 9.195C21.3318 9.68633 21.4968 10.097 21.8268 10.427ZM28.5025 5.455C28.3558 5.60167 28.1798 5.675 27.9745 5.675C27.7692 5.675 27.5895 5.60167 27.4355 5.455C27.2888 5.301 27.2155 5.12133 27.2155 4.916C27.2155 4.71067 27.2888 4.53467 27.4355 4.388C27.5822 4.234 27.7618 4.157 27.9745 4.157C28.1872 4.157 28.3668 4.234 28.5135 4.388C28.6602 4.53467 28.7335 4.71067 28.7335 4.916C28.7335 5.12133 28.6565 5.301 28.5025 5.455ZM28.5685 12H27.3805V6.5H28.5685V12ZM33.0169 6.5V7.644H31.6529V10.284C31.6529 10.5113 31.7042 10.6763 31.8069 10.779C31.9095 10.8743 32.0599 10.9293 32.2579 10.944C32.4632 10.9513 32.7162 10.9477 33.0169 10.933V12C32.1075 12.11 31.4549 12.033 31.0589 11.769C30.6629 11.4977 30.4649 11.0027 30.4649 10.284V7.644H29.4529V6.5H30.4649V5.312L31.6529 4.96V6.5H33.0169ZM38.2248 7.281V6.5H39.4128V12H38.2248V11.208C37.7774 11.8313 37.1358 12.143 36.2998 12.143C35.5444 12.143 34.8991 11.8643 34.3638 11.307C33.8284 10.7497 33.5608 10.064 33.5608 9.25C33.5608 8.436 33.8284 7.75033 34.3638 7.193C34.8991 6.63567 35.5444 6.357 36.2998 6.357C37.1358 6.357 37.7774 6.665 38.2248 7.281ZM35.2438 10.515C35.5738 10.845 35.9881 11.01 36.4868 11.01C36.9854 11.01 37.3998 10.845 37.7298 10.515C38.0598 10.1777 38.2248 9.756 38.2248 9.25C38.2248 8.744 38.0598 8.326 37.7298 7.996C37.3998 7.65867 36.9854 7.49 36.4868 7.49C35.9881 7.49 35.5738 7.65867 35.2438 7.996C34.9138 8.326 34.7488 8.744 34.7488 9.25C34.7488 9.74867 34.9138 10.1703 35.2438 10.515ZM41.9855 12H40.7975V3.97H41.9855V12Z" fill="white"/>
<defs>
<filter id="filter0_i_94_21270" x="0.960938" y="15" width="50" height="25.2844" filterUnits="userSpaceOnUse" color-interpolation-filters="sRGB">
<feFlood flood-opacity="0" result="BackgroundImageFix"/>
<feBlend mode="normal" in="SourceGraphic" in2="BackgroundImageFix" result="shape"/>
<feColorMatrix in="SourceAlpha" type="matrix" values="0 0 0 0 0 0 0 0 0 0 0 0 0 0 0 0 0 0 127 0" result="hardAlpha"/>
<feOffset dy="0.284448"/>
<feGaussianBlur stdDeviation="1.70669"/>
<feComposite in2="hardAlpha" operator="arithmetic" k2="-1" k3="1"/>
<feColorMatrix type="matrix" values="0 0 0 0 0 0 0 0 0 0.0830918 0 0 0 0 0.133333 0 0 0 0.59 0"/>
<feBlend mode="normal" in2="shape" result="effect1_innerShadow_94_21270"/>
</filter>
<filter id="filter1_i_94_21270" x="2.47656" y="16.875" width="46.9688" height="21.5344" filterUnits="userSpaceOnUse" color-interpolation-filters="sRGB">
<feFlood flood-opacity="0" result="BackgroundImageFix"/>
<feBlend mode="normal" in="SourceGraphic" in2="BackgroundImageFix" result="shape"/>
<feColorMatrix in="SourceAlpha" type="matrix" values="0 0 0 0 0 0 0 0 0 0 0 0 0 0 0 0 0 0 127 0" result="hardAlpha"/>
<feOffset dy="0.284448"/>
<feGaussianBlur stdDeviation="3.2356"/>
<feComposite in2="hardAlpha" operator="arithmetic" k2="-1" k3="1"/>
<feColorMatrix type="matrix" values="0 0 0 0 0.983333 0 0 0 0 0.236 0 0 0 0 0 0 0 0 1 0"/>
<feBlend mode="normal" in2="shape" result="effect1_innerShadow_94_21270"/>
</filter>
</defs>
</svg>
