<svg width="79" height="43" viewBox="0 0 79 43" fill="none" xmlns="http://www.w3.org/2000/svg">
<g filter="url(#filter0_i_94_21287)">
<rect x="0.960938" width="78" height="26" rx="3.20005" fill="#002B45"/>
</g>
<g filter="url(#filter1_i_94_21287)">
<rect x="3.31641" y="1.95312" width="73.2727" height="22.1" rx="1.99114" fill="#51BDDF"/>
</g>
<path d="M40.9507 36.1429C40.7857 37.2857 39.1362 37.2857 38.9712 36.1429L37.5278 26.1429C37.4408 25.54 37.9084 25 38.5176 25L41.4043 25C42.0134 25 42.4811 25.54 42.3941 26.1429L40.9507 36.1429Z" fill="#002B45"/>
<path d="M28.4106 16.143C27.67 16.143 27.0393 15.978 26.5186 15.648C26.0053 15.3107 25.646 14.845 25.4406 14.251L26.5296 13.613C26.8376 14.4783 27.4756 14.911 28.4436 14.911C28.913 14.911 29.2686 14.8193 29.5106 14.636C29.7526 14.4527 29.8736 14.207 29.8736 13.899C29.8736 13.591 29.7453 13.3527 29.4886 13.184C29.232 13.0153 28.7773 12.832 28.1246 12.634C27.4573 12.436 26.9183 12.2013 26.5076 11.93C26.009 11.578 25.7596 11.061 25.7596 10.379C25.7596 9.697 26.0016 9.158 26.4856 8.762C26.9623 8.35867 27.5453 8.157 28.2346 8.157C28.8433 8.157 29.3786 8.30733 29.8406 8.608C30.31 8.90133 30.6693 9.31567 30.9186 9.851L29.8516 10.467C29.529 9.74833 28.99 9.389 28.2346 9.389C27.868 9.389 27.5746 9.477 27.3546 9.653C27.1346 9.82167 27.0246 10.0527 27.0246 10.346C27.0246 10.632 27.1346 10.8593 27.3546 11.028C27.5746 11.1893 27.9816 11.3617 28.5756 11.545C28.9423 11.6697 29.155 11.743 29.2136 11.765C29.309 11.7943 29.4996 11.8677 29.7856 11.985C30.0203 12.0803 30.2073 12.183 30.3466 12.293C30.9186 12.7403 31.1826 13.2683 31.1386 13.877C31.1386 14.5737 30.8856 15.1273 30.3796 15.538C29.8883 15.9413 29.232 16.143 28.4106 16.143ZM35.8692 13.448V10.5H37.0572V16H35.8692V15.296C35.5026 15.8607 34.9342 16.143 34.1642 16.143C33.5262 16.143 33.0129 15.9413 32.6242 15.538C32.2429 15.1273 32.0522 14.5737 32.0522 13.877V10.5H33.2402V13.756C33.2402 14.1667 33.3502 14.482 33.5702 14.702C33.7902 14.922 34.0909 15.032 34.4722 15.032C34.9049 15.032 35.2459 14.9 35.4952 14.636C35.7446 14.3647 35.8692 13.9687 35.8692 13.448ZM41.5594 10.357C42.3074 10.357 42.9528 10.6393 43.4954 11.204C44.0308 11.7613 44.2984 12.4433 44.2984 13.25C44.2984 14.064 44.0308 14.7497 43.4954 15.307C42.9601 15.8643 42.3148 16.143 41.5594 16.143C40.7308 16.143 40.0891 15.835 39.6344 15.219V18.2H38.4464V10.5H39.6344V11.292C40.0818 10.6687 40.7234 10.357 41.5594 10.357ZM40.1294 14.515C40.4594 14.845 40.8738 15.01 41.3724 15.01C41.8711 15.01 42.2854 14.845 42.6154 14.515C42.9454 14.1777 43.1104 13.756 43.1104 13.25C43.1104 12.744 42.9454 12.326 42.6154 11.996C42.2854 11.6587 41.8711 11.49 41.3724 11.49C40.8738 11.49 40.4594 11.6587 40.1294 11.996C39.7994 12.326 39.6344 12.744 39.6344 13.25C39.6344 13.7487 39.7994 14.1703 40.1294 14.515ZM50.6881 13.756H46.3101C46.3981 14.1667 46.5961 14.4857 46.9041 14.713C47.2195 14.9403 47.6081 15.054 48.0701 15.054C48.6935 15.054 49.1665 14.8267 49.4891 14.372L50.4681 14.944C49.9328 15.7433 49.1298 16.143 48.0591 16.143C47.1718 16.143 46.4495 15.8717 45.8921 15.329C45.3421 14.779 45.0671 14.086 45.0671 13.25C45.0671 12.436 45.3385 11.7503 45.8811 11.193C46.4165 10.6357 47.1131 10.357 47.9711 10.357C48.7705 10.357 49.4305 10.6393 49.9511 11.204C50.4718 11.7687 50.7321 12.4543 50.7321 13.261C50.7321 13.4077 50.7175 13.5727 50.6881 13.756ZM46.2991 12.788H49.5331C49.4525 12.3553 49.2691 12.0217 48.9831 11.787C48.7045 11.5523 48.3635 11.435 47.9601 11.435C47.5201 11.435 47.1535 11.556 46.8601 11.798C46.5668 12.04 46.3798 12.37 46.2991 12.788ZM52.9655 10.5V11.424C53.2661 10.742 53.8308 10.401 54.6595 10.401V11.688C54.2121 11.6587 53.8161 11.7687 53.4715 12.018C53.1341 12.26 52.9655 12.6633 52.9655 13.228V16H51.7775V10.5H52.9655Z" fill="white"/>
<defs>
<filter id="filter0_i_94_21287" x="0.960938" y="0" width="78" height="26.2844" filterUnits="userSpaceOnUse" color-interpolation-filters="sRGB">
<feFlood flood-opacity="0" result="BackgroundImageFix"/>
<feBlend mode="normal" in="SourceGraphic" in2="BackgroundImageFix" result="shape"/>
<feColorMatrix in="SourceAlpha" type="matrix" values="0 0 0 0 0 0 0 0 0 0 0 0 0 0 0 0 0 0 127 0" result="hardAlpha"/>
<feOffset dy="0.284448"/>
<feGaussianBlur stdDeviation="1.70669"/>
<feComposite in2="hardAlpha" operator="arithmetic" k2="-1" k3="1"/>
<feColorMatrix type="matrix" values="0 0 0 0 0 0 0 0 0 0.0830918 0 0 0 0 0.133333 0 0 0 0.59 0"/>
<feBlend mode="normal" in2="shape" result="effect1_innerShadow_94_21287"/>
</filter>
<filter id="filter1_i_94_21287" x="3.31641" y="1.95312" width="73.2734" height="22.3841" filterUnits="userSpaceOnUse" color-interpolation-filters="sRGB">
<feFlood flood-opacity="0" result="BackgroundImageFix"/>
<feBlend mode="normal" in="SourceGraphic" in2="BackgroundImageFix" result="shape"/>
<feColorMatrix in="SourceAlpha" type="matrix" values="0 0 0 0 0 0 0 0 0 0 0 0 0 0 0 0 0 0 127 0" result="hardAlpha"/>
<feOffset dy="0.284448"/>
<feGaussianBlur stdDeviation="3.2356"/>
<feComposite in2="hardAlpha" operator="arithmetic" k2="-1" k3="1"/>
<feColorMatrix type="matrix" values="0 0 0 0 0.0491779 0 0 0 0 0.572429 0 0 0 0 0.737666 0 0 0 1 0"/>
<feBlend mode="normal" in2="shape" result="effect1_innerShadow_94_21287"/>
</filter>
</defs>
</svg>
